<svg width="449" height="449" viewBox="0 0 449 449" fill="none" xmlns="http://www.w3.org/2000/svg">
<path d="M225.527 0C260.993 0 289.744 25.128 289.744 56.125C289.744 56.2749 289.742 56.4246 289.74 56.5742H434C442.284 56.5742 449 63.2899 449 71.5742V434C449 442.284 442.284 449 434 449H15C6.7158 449 0.000117518 442.284 0 434V71.5742C7.5327e-06 63.29 6.71573 56.5742 15 56.5742H161.314C161.313 56.4246 161.312 56.2749 161.312 56.125C161.312 25.1281 190.062 5.76671e-05 225.527 0ZM32.8789 420.265H416.121V85.3105H353.446V125.088C353.446 133.372 346.731 140.088 338.446 140.088H111.581C103.297 140.088 96.5811 133.372 96.5811 125.088V85.3105H32.8789V420.265ZM363.732 215.781L190.037 367.592L156.793 338.536L156.808 338.522L85.2793 276.008L118.523 246.952L190.051 309.468L330.488 186.727L363.732 215.781ZM225.527 28.7363C208.22 28.7364 194.19 40.9985 194.19 56.125C194.19 71.2515 208.22 83.5136 225.527 83.5137C242.835 83.5137 256.865 71.2515 256.865 56.125C256.865 40.9985 242.835 28.7363 225.527 28.7363Z" fill="#1B1BB3"/>
</svg>
