<svg width="449" height="449" viewBox="0 0 449 449" fill="none" xmlns="http://www.w3.org/2000/svg">
<path d="M449 375.374C449 381.343 445.461 386.744 439.987 389.127L305.32 447.754C301.502 449.416 297.164 449.416 293.346 447.754L155.653 387.81C151.835 386.148 147.497 386.148 143.679 387.81L20.9875 441.224C11.0801 445.537 0 438.276 0 427.471V89.0971C0 83.6277 2.97698 78.5918 7.76891 75.9552L142.435 1.85801C146.937 -0.619359 152.395 -0.619361 156.897 1.858L292.102 76.2511C296.604 78.7285 302.062 78.7285 306.564 76.2511L426.769 10.1106C436.766 4.61 449 11.8423 449 23.2525V375.374ZM32.2304 90.4404C27.424 93.0727 24.4355 98.1166 24.4355 103.597V387.744C24.4355 398.526 35.4707 405.787 45.3721 401.52L116.168 371.01C121.668 368.639 125.231 363.224 125.231 357.235V64.8243C125.231 53.4272 113.022 46.1936 103.026 51.6681L32.2304 90.4404ZM174.102 357.235C174.102 363.224 177.665 368.639 183.165 371.01L253.961 401.52C263.862 405.787 274.897 398.526 274.897 387.744V103.597C274.897 98.1166 271.909 93.0727 267.103 90.4404L196.307 51.6681C186.311 46.1936 174.102 53.4272 174.102 64.8243V357.235ZM331.563 90.4404C326.757 93.0727 323.769 98.1166 323.769 103.597V387.744C323.769 398.526 334.804 405.787 344.705 401.52L415.501 371.01C421.001 368.639 424.564 363.224 424.564 357.235V64.8243C424.564 53.4272 412.356 46.1936 402.359 51.6681L331.563 90.4404Z" fill="#1B1BB3"/>
<mask id="path-2-inside-1_1549_167" fill="white">
<path d="M223.88 170.683C232.165 170.683 238.88 177.399 238.88 185.683V211.966C288.467 223.721 325.358 268.284 325.358 321.465C325.358 383.615 274.976 433.998 212.826 433.998C150.676 433.998 100.293 383.615 100.293 321.465C100.294 268.284 137.185 223.721 186.772 211.966V185.683C186.772 177.399 193.488 170.683 201.772 170.683H223.88ZM221.695 248.846H203.957V227.083C158.683 231.285 122.645 267.322 118.444 312.596H140.207V330.335H118.444C122.645 375.609 158.683 411.646 203.957 415.847V394.085H221.695V415.848C266.969 411.647 303.007 375.609 307.208 330.335H285.445V312.596H307.208C303.007 267.322 266.969 231.283 221.695 227.082V248.846ZM267.534 271.411L229.411 337.505L229.006 338.206L228.304 338.609L162.764 376.177L158.711 372.011L197.793 307.984L198.169 307.368L198.785 306.991L263.366 267.355L267.534 271.411ZM213.38 315.319C209.374 315.319 206.125 318.567 206.125 322.575C206.126 326.581 209.374 329.829 213.38 329.829C217.262 329.829 220.432 326.781 220.626 322.948L220.636 322.575C220.636 318.568 217.387 315.319 213.38 315.319ZM204.511 205.607H221.141V188.422H204.511V205.607Z"/>
</mask>
<path d="M223.88 170.683C232.165 170.683 238.88 177.399 238.88 185.683V211.966C288.467 223.721 325.358 268.284 325.358 321.465C325.358 383.615 274.976 433.998 212.826 433.998C150.676 433.998 100.293 383.615 100.293 321.465C100.294 268.284 137.185 223.721 186.772 211.966V185.683C186.772 177.399 193.488 170.683 201.772 170.683H223.88ZM221.695 248.846H203.957V227.083C158.683 231.285 122.645 267.322 118.444 312.596H140.207V330.335H118.444C122.645 375.609 158.683 411.646 203.957 415.847V394.085H221.695V415.848C266.969 411.647 303.007 375.609 307.208 330.335H285.445V312.596H307.208C303.007 267.322 266.969 231.283 221.695 227.082V248.846ZM267.534 271.411L229.411 337.505L229.006 338.206L228.304 338.609L162.764 376.177L158.711 372.011L197.793 307.984L198.169 307.368L198.785 306.991L263.366 267.355L267.534 271.411ZM213.38 315.319C209.374 315.319 206.125 318.567 206.125 322.575C206.126 326.581 209.374 329.829 213.38 329.829C217.262 329.829 220.432 326.781 220.626 322.948L220.636 322.575C220.636 318.568 217.387 315.319 213.38 315.319ZM204.511 205.607H221.141V188.422H204.511V205.607Z" fill="#1B1BB3"/>
<path d="M223.88 170.683L223.88 167.683H223.88V170.683ZM238.88 211.966H235.88V214.338L238.188 214.885L238.88 211.966ZM325.358 321.465L328.358 321.465L328.358 321.465L325.358 321.465ZM212.826 433.998L212.826 436.998H212.826V433.998ZM100.293 321.465L97.2935 321.465V321.465H100.293ZM186.772 211.966L187.464 214.885L189.772 214.338V211.966H186.772ZM186.772 185.683L183.772 185.683V185.683H186.772ZM201.772 170.683L201.772 167.683H201.772L201.772 170.683ZM221.695 248.846V251.846H224.695V248.846H221.695ZM203.957 248.846H200.957V251.846H203.957V248.846ZM203.957 227.083H206.957V223.792L203.679 224.096L203.957 227.083ZM118.444 312.596L115.457 312.319L115.153 315.596H118.444V312.596ZM140.207 312.596H143.207V309.596H140.207V312.596ZM140.207 330.335V333.335H143.207V330.335H140.207ZM118.444 330.335V327.335H115.153L115.457 330.613L118.444 330.335ZM203.957 415.847L203.679 418.834L206.957 419.138V415.847H203.957ZM203.957 394.085V391.085H200.957V394.085H203.957ZM221.695 394.085H224.695V391.085H221.695V394.085ZM221.695 415.848H218.695V419.139L221.972 418.835L221.695 415.848ZM307.208 330.335L310.196 330.613L310.5 327.335H307.208V330.335ZM285.445 330.335H282.445V333.335H285.445V330.335ZM285.445 312.596V309.596H282.445V312.596H285.445ZM307.208 312.596V315.596H310.5L310.196 312.319L307.208 312.596ZM221.695 227.082L221.972 224.095L218.695 223.791V227.082H221.695ZM267.534 271.411L270.132 272.909L271.298 270.888L269.626 269.26L267.534 271.411ZM229.411 337.505L226.812 336.006L226.812 336.007L229.411 337.505ZM229.006 338.206L230.498 340.809L231.201 340.407L231.605 339.705L229.006 338.206ZM228.304 338.609L226.813 336.006L226.812 336.006L228.304 338.609ZM162.764 376.177L160.614 378.269L162.237 379.937L164.256 378.78L162.764 376.177ZM158.711 372.011L156.151 370.448L154.938 372.435L156.561 374.103L158.711 372.011ZM197.793 307.984L200.354 309.547L200.354 309.546L197.793 307.984ZM198.169 307.368L196.602 304.81L195.985 305.187L195.608 305.805L198.169 307.368ZM198.785 306.991L200.352 309.549L200.354 309.547L198.785 306.991ZM263.366 267.355L265.458 265.205L263.785 263.577L261.796 264.798L263.366 267.355ZM213.38 315.319L213.38 312.319L213.38 312.319L213.38 315.319ZM206.125 322.575L203.125 322.575L203.125 322.575L206.125 322.575ZM213.38 329.829L213.38 332.829L213.38 332.829L213.38 329.829ZM220.626 322.948L223.623 323.1L223.624 323.063L223.625 323.026L220.626 322.948ZM220.636 322.575L223.635 322.653L223.636 322.614V322.575H220.636ZM204.511 205.607H201.511V208.607H204.511V205.607ZM221.141 205.607V208.607H224.141V205.607H221.141ZM221.141 188.422H224.141V185.422H221.141V188.422ZM204.511 188.422V185.422H201.511V188.422H204.511ZM223.88 170.683L223.88 173.683C230.508 173.683 235.88 179.056 235.88 185.683H238.88H241.88C241.88 175.742 233.821 167.683 223.88 167.683L223.88 170.683ZM238.88 185.683H235.88V211.966H238.88H241.88V185.683H238.88ZM238.88 211.966L238.188 214.885C286.453 226.327 322.358 269.706 322.358 321.465L325.358 321.465L328.358 321.465C328.358 266.862 290.481 221.115 239.572 209.047L238.88 211.966ZM325.358 321.465H322.358C322.358 381.958 273.319 430.998 212.826 430.998V433.998V436.998C276.632 436.998 328.358 385.272 328.358 321.465H325.358ZM212.826 433.998L212.826 430.998C152.333 430.998 103.293 381.958 103.293 321.465H100.293H97.2935C97.2935 385.272 149.019 436.998 212.826 436.998L212.826 433.998ZM100.293 321.465L103.293 321.465C103.294 269.706 139.199 226.326 187.464 214.885L186.772 211.966L186.08 209.047C135.171 221.115 97.2936 266.862 97.2935 321.465L100.293 321.465ZM186.772 211.966H189.772V185.683H186.772H183.772V211.966H186.772ZM186.772 185.683L189.772 185.683C189.772 179.056 195.145 173.683 201.772 173.683L201.772 170.683L201.772 167.683C191.831 167.683 183.772 175.742 183.772 185.683L186.772 185.683ZM201.772 170.683V173.683H223.88V170.683V167.683H201.772V170.683ZM221.695 248.846V245.846H203.957V248.846V251.846H221.695V248.846ZM203.957 248.846H206.957V227.083H203.957H200.957V248.846H203.957ZM203.957 227.083L203.679 224.096C156.968 228.431 119.791 265.607 115.457 312.319L118.444 312.596L121.431 312.873C125.499 269.037 160.398 234.138 204.234 230.071L203.957 227.083ZM118.444 312.596V315.596H140.207V312.596V309.596H118.444V312.596ZM140.207 312.596H137.207V330.335H140.207H143.207V312.596H140.207ZM140.207 330.335V327.335H118.444V330.335V333.335H140.207V330.335ZM118.444 330.335L115.457 330.613C119.792 377.324 156.968 414.5 203.679 418.834L203.957 415.847L204.234 412.86C160.398 408.792 125.499 373.894 121.431 330.058L118.444 330.335ZM203.957 415.847H206.957V394.085H203.957H200.957V415.847H203.957ZM203.957 394.085V397.085H221.695V394.085V391.085H203.957V394.085ZM221.695 394.085H218.695V415.848H221.695H224.695V394.085H221.695ZM221.695 415.848L221.972 418.835C268.684 414.501 305.861 377.324 310.196 330.613L307.208 330.335L304.221 330.058C300.153 373.894 265.254 408.793 221.418 412.861L221.695 415.848ZM307.208 330.335V327.335H285.445V330.335V333.335H307.208V330.335ZM285.445 330.335H288.445V312.596H285.445H282.445V330.335H285.445ZM285.445 312.596V315.596H307.208V312.596V309.596H285.445V312.596ZM307.208 312.596L310.196 312.319C305.861 265.607 268.684 228.43 221.972 224.095L221.695 227.082L221.418 230.07C265.254 234.137 300.154 269.037 304.221 312.873L307.208 312.596ZM221.695 227.082H218.695V248.846H221.695H224.695V227.082H221.695ZM267.534 271.411L264.935 269.912L226.812 336.006L229.411 337.505L232.009 339.004L270.132 272.909L267.534 271.411ZM229.411 337.505L226.812 336.007L226.407 336.708L229.006 338.206L231.605 339.705L232.01 339.004L229.411 337.505ZM229.006 338.206L227.515 335.603L226.813 336.006L228.304 338.609L229.796 341.212L230.498 340.809L229.006 338.206ZM228.304 338.609L226.812 336.006L161.272 373.574L162.764 376.177L164.256 378.78L229.796 341.211L228.304 338.609ZM162.764 376.177L164.915 374.085L160.862 369.919L158.711 372.011L156.561 374.103L160.614 378.269L162.764 376.177ZM158.711 372.011L161.272 373.574L200.354 309.547L197.793 307.984L195.233 306.421L156.151 370.448L158.711 372.011ZM197.793 307.984L200.354 309.546L200.73 308.93L198.169 307.368L195.608 305.805L195.233 306.421L197.793 307.984ZM198.169 307.368L199.737 309.926L200.352 309.549L198.785 306.991L197.217 304.433L196.602 304.81L198.169 307.368ZM198.785 306.991L200.354 309.547L264.935 269.912L263.366 267.355L261.796 264.798L197.215 304.434L198.785 306.991ZM263.366 267.355L261.274 269.505L265.442 273.561L267.534 271.411L269.626 269.26L265.458 265.205L263.366 267.355ZM213.38 315.319L213.38 312.319C207.717 312.319 203.125 316.911 203.125 322.575H206.125H209.125C209.125 320.224 211.031 318.319 213.38 318.319L213.38 315.319ZM206.125 322.575L203.125 322.575C203.126 328.238 207.717 332.829 213.38 332.829L213.38 329.829L213.38 326.829C211.031 326.829 209.126 324.925 209.125 322.574L206.125 322.575ZM213.38 329.829L213.38 332.829C218.868 332.829 223.348 328.52 223.623 323.1L220.626 322.948L217.63 322.796C217.516 325.041 215.656 326.829 213.38 326.829L213.38 329.829ZM220.626 322.948L223.625 323.026L223.635 322.653L220.636 322.575L217.637 322.496L217.627 322.869L220.626 322.948ZM220.636 322.575H223.636C223.636 316.911 219.044 312.319 213.38 312.319L213.38 315.319L213.38 318.319C215.731 318.319 217.636 320.225 217.636 322.575H220.636ZM204.511 205.607V208.607H221.141V205.607V202.607H204.511V205.607ZM221.141 205.607H224.141V188.422H221.141H218.141V205.607H221.141ZM221.141 188.422V185.422H204.511V188.422V191.422H221.141V188.422ZM204.511 188.422H201.511V205.607H204.511H207.511V188.422H204.511Z" fill="white" mask="url(#path-2-inside-1_1549_167)"/>
</svg>
