<svg width="449" height="449" viewBox="0 0 449 449" fill="none" xmlns="http://www.w3.org/2000/svg">
<path d="M237 0L350.225 110.73V130.73L358.934 115C371.775 91.8041 401.002 83.4039 424.213 96.2373C447.424 109.071 455.83 138.279 442.988 161.475L355.793 318.977L355.552 318.843C354.694 319.98 353.638 321.016 352.379 321.899L350.225 323.41V434C350.225 442.284 343.509 449 335.225 449H15C6.71573 449 6.64433e-08 442.284 0 434V15C0 6.71573 6.71573 0 15 0H237ZM39.8447 28.7363C31.5605 28.7363 24.8447 35.4521 24.8447 43.7363V405.264C24.8447 413.548 31.5605 420.264 39.8447 420.264H309.578C317.862 420.264 324.578 413.548 324.578 405.264V341.399L288.907 366.421C279.34 373.132 266.246 365.87 266.883 354.206L271.112 276.824C271.194 275.335 271.497 273.932 271.982 272.637L271.738 272.502L324.578 177.057V140.088H235.201C229.678 140.088 225.201 135.611 225.201 130.088V28.7363H39.8447ZM252.066 337.648C257.589 337.648 262.066 342.126 262.066 347.648V355.486C262.066 361.009 257.589 365.486 252.066 365.486H96.5537C91.0312 365.486 86.5539 361.009 86.5537 355.486V347.648C86.5537 342.126 91.0311 337.649 96.5537 337.648H252.066ZM294.389 330.74L319.568 312.09L296.82 299.513L294.389 330.74ZM252.066 281.074C257.589 281.074 262.066 285.551 262.066 291.074V298.912C262.066 304.435 257.589 308.912 252.066 308.912H96.5537C91.0311 308.912 86.5538 304.435 86.5537 298.912V291.074C86.5537 285.552 91.0311 281.074 96.5537 281.074H252.066ZM371.396 158.588L371.237 158.5L309.198 270.5L324.47 278.8L324.578 278.86V278.858L337.716 286L372.325 223.011L399.469 173.983L371.45 158.492L371.396 158.588ZM252.066 224.5C257.589 224.5 262.066 228.977 262.066 234.5V242.338C262.066 247.861 257.589 252.338 252.066 252.338H96.5537C91.0311 252.338 86.5537 247.861 86.5537 242.338V234.5C86.5537 228.977 91.0311 224.5 96.5537 224.5H252.066ZM408.711 124.237C400.974 119.96 391.233 122.76 386.952 130.491L414.97 145.983C419.25 138.251 416.448 128.515 408.711 124.237ZM249.645 112.025H306.874L249.645 56.125V112.025Z" fill="#1B1BB3"/>
</svg>
