<svg width="449" height="449" viewBox="0 0 449 449" fill="none" xmlns="http://www.w3.org/2000/svg">
<path d="M273 0C281.284 0 288 6.71573 288 15V79.1768H312.5C318.023 79.1768 322.5 83.6539 322.5 89.1768V106.705C335.102 110.003 347.002 115.042 357.93 121.55L370.386 109.067C374.287 105.158 380.611 105.158 384.512 109.067L419.176 143.809C423.076 147.718 423.077 154.057 419.176 157.967L406.602 170.568C413.008 181.495 417.962 193.381 421.192 205.96H439C444.523 205.96 449 210.437 449 215.96V265.113C449 270.636 444.523 275.113 439 275.113H421.192C417.962 287.692 413.008 299.578 406.602 310.504L419.177 323.106C423.077 327.016 423.077 333.354 419.177 337.264L384.513 372.006C380.612 375.915 374.287 375.915 370.386 372.006L357.931 359.522C347.003 366.03 335.102 371.068 322.5 374.365V391.896C322.5 397.418 318.023 401.896 312.5 401.896H288V434C288 442.284 281.284 449 273 449H15C6.71573 449 6.64433e-08 442.284 0 434V15C0 6.71573 6.71573 3.86554e-07 15 0H273ZM32 416.929H256V32.0713H208V65.1787C208 73.4629 201.284 80.1787 193 80.1787H95C86.7158 80.1787 80.0002 73.4629 80 65.1787V32.0713H32V416.929ZM192 95.2119C218.51 95.2119 240 116.751 240 143.319V323.721H239.741C239.54 325.115 239.121 326.517 238.456 327.885L204.493 397.734C199.378 408.253 184.383 408.233 179.296 397.7L145.52 327.761C144.878 326.433 144.467 325.074 144.263 323.721H144V143.319C144 116.751 165.49 95.2119 192 95.2119ZM113 304.679C121.284 304.679 128 311.394 128 319.679V369.857C128 378.142 121.284 384.857 113 384.857H63C54.7158 384.857 48.0001 378.142 48 369.857V319.679C48 311.394 54.7157 304.679 63 304.679H113ZM288 161.649C331.471 161.649 366.711 196.968 366.711 240.536C366.711 284.104 331.471 319.423 288 319.423V366.038H304.834C310.356 366.038 314.833 361.56 314.834 356.038V344.624C324.635 342.059 333.891 338.141 342.39 333.08L350.509 341.217C354.41 345.126 360.735 345.126 364.636 341.217L388.457 317.342C392.357 313.432 392.357 307.093 388.457 303.184L380.246 294.955C385.229 286.457 389.082 277.213 391.595 267.43H403.223C408.745 267.429 413.222 262.952 413.223 257.43V223.643C413.222 218.12 408.745 213.643 403.223 213.643H391.595C389.082 203.859 385.23 194.614 380.247 186.116L388.457 177.889C392.357 173.979 392.357 167.64 388.457 163.73L364.635 139.855C360.734 135.946 354.41 135.946 350.509 139.855L342.391 147.99C333.892 142.929 324.635 139.01 314.834 136.445V125.034C314.834 119.512 310.356 115.035 304.834 115.034H288V161.649ZM192 363.811L204.99 335.247H179.01L192 363.811ZM78 329.734C75.2386 329.734 73.0001 331.973 73 334.734V354.802C73.0002 357.563 75.2387 359.802 78 359.802H98C100.761 359.802 103 357.563 103 354.802V334.734C103 331.973 100.761 329.734 98 329.734H78ZM176 303.676H208V175.391H176V303.676ZM113 208.464C121.284 208.464 128 215.18 128 223.464V273.643C128 281.927 121.284 288.643 113 288.643H63C54.7158 288.643 48.0001 281.927 48 273.643V223.464C48.0002 215.18 54.7159 208.464 63 208.464H113ZM288 279.979C309.735 279.979 327.355 262.32 327.355 240.536C327.355 218.752 309.735 201.093 288 201.093V279.979ZM78 233.52C75.2388 233.52 73.0003 235.758 73 238.52V258.587C73.0002 261.348 75.2387 263.587 78 263.587H98C100.761 263.587 103 261.348 103 258.587V238.52C103 235.758 100.761 233.52 98 233.52H78ZM113 112.25C121.284 112.25 128 118.966 128 127.25V177.429C128 185.713 121.284 192.429 113 192.429H63C54.7158 192.429 48.0001 185.713 48 177.429V127.25C48 118.966 54.7157 112.25 63 112.25H113ZM78 137.306C75.2386 137.306 73.0001 139.544 73 142.306V162.373C73.0002 165.134 75.2387 167.373 78 167.373H98C100.761 167.373 103 165.134 103 162.373V142.306C103 139.544 100.761 137.306 98 137.306H78ZM192 127.283C183.163 127.283 176 134.463 176 143.319H208C208 134.463 200.837 127.283 192 127.283ZM112 48.1074H176V32.0713H112V48.1074Z" fill="#1B1BB3"/>
</svg>
